<svg width="258" height="66" viewBox="0 0 258 66" fill="none" xmlns="http://www.w3.org/2000/svg">
<path d="M257.074 65.0372H249.387V60.3699C248.564 61.9257 247.145 63.2069 245.132 64.2135C243.118 65.2202 240.968 65.7235 238.68 65.7235C235.706 65.7235 232.983 64.9457 230.512 63.3899C228.041 61.8341 226.097 59.7293 224.678 57.0753C223.26 54.4214 222.55 51.47 222.55 48.2212C222.55 45.0182 223.26 42.0897 224.678 39.4357C226.097 36.7818 228.041 34.6769 230.512 33.1212C232.983 31.5654 235.706 30.7875 238.68 30.7875C240.968 30.7875 243.118 31.2909 245.132 32.2975C247.145 33.3042 248.564 34.5854 249.387 36.1412V31.4739H257.074V65.0372ZM230.032 48.2212C230.032 50.143 230.466 51.8818 231.336 53.4376C232.251 54.9934 233.486 56.2288 235.042 57.144C236.644 58.0134 238.382 58.4481 240.259 58.4481C242.135 58.4481 243.919 57.9676 245.612 57.0067C247.305 56.0458 248.564 54.8103 249.387 53.3003V43.2794C248.609 41.7694 247.374 40.5339 245.681 39.573C243.988 38.5663 242.18 38.063 240.259 38.063C238.337 38.063 236.598 38.5206 235.042 39.4357C233.486 40.3051 232.251 41.5177 231.336 43.0735C230.466 44.5835 230.032 46.2994 230.032 48.2212Z" fill="#12110D"/>
<path d="M216.804 65.0372H209.185V16.9916H216.804V65.0372Z" fill="#12110D"/>
<path d="M201.173 65.0372H193.486V60.3699C192.662 61.9257 191.244 63.2069 189.231 64.2135C187.217 65.2202 185.067 65.7235 182.779 65.7235C179.805 65.7235 177.082 64.9457 174.611 63.3899C172.14 61.8341 170.195 59.7293 168.777 57.0753C167.358 54.4214 166.649 51.47 166.649 48.2212C166.649 45.0182 167.358 42.0897 168.777 39.4357C170.195 36.7818 172.14 34.6769 174.611 33.1212C177.082 31.5654 179.805 30.7875 182.779 30.7875C185.067 30.7875 187.217 31.2909 189.231 32.2975C191.244 33.3042 192.662 34.5854 193.486 36.1412V31.4739H201.173V65.0372ZM174.131 48.2212C174.131 50.143 174.565 51.8818 175.435 53.4376C176.35 54.9934 177.585 56.2288 179.141 57.144C180.743 58.0134 182.481 58.4481 184.357 58.4481C186.233 58.4481 188.018 57.9676 189.711 57.0067C191.404 56.0458 192.662 54.8103 193.486 53.3003V43.2794C192.708 41.7694 191.473 40.5339 189.78 39.573C188.087 38.5663 186.279 38.063 184.357 38.063C182.436 38.063 180.697 38.5206 179.141 39.4357C177.585 40.3051 176.35 41.5177 175.435 43.0735C174.565 44.5835 174.131 46.2994 174.131 48.2212Z" fill="#12110D"/>
<path d="M153.27 43.2794C152.492 41.7694 151.256 40.5339 149.563 39.573C147.87 38.5663 146.063 38.063 144.141 38.063C142.219 38.063 140.48 38.5206 138.924 39.4357C137.369 40.3051 136.133 41.5177 135.218 43.0735C134.349 44.5835 133.914 46.2994 133.914 48.2212C133.914 50.143 134.349 51.8818 135.218 53.4376C136.133 54.9933 137.369 56.2288 138.924 57.144C140.526 58.0134 142.265 58.4481 144.141 58.4481C146.017 58.4481 147.801 57.9676 149.494 57.0067C151.188 56.0458 152.446 54.8103 153.27 53.3003V43.2794ZM126.433 48.2212C126.433 45.0182 127.142 42.0897 128.56 39.4357C129.979 36.7818 131.924 34.6769 134.394 33.1212C136.865 31.5654 139.588 30.7875 142.562 30.7875C144.85 30.7875 147.001 31.2909 149.014 32.2975C151.027 33.3042 152.446 34.5854 153.27 36.1412V16.9916H160.888V65.0372H153.27V60.3699C152.446 61.9256 151.027 63.2069 149.014 64.2135C147.001 65.2202 144.85 65.7235 142.562 65.7235C139.588 65.7235 136.865 64.9456 134.394 63.3899C131.924 61.8341 129.979 59.7293 128.56 57.0753C127.142 54.4214 126.433 51.47 126.433 48.2212Z" fill="#12110D"/>
<path d="M124.766 65.0371H116.049L112.343 55.428H92.0267L88.2517 65.0371H79.7407L98.8903 16.9915H105.617L124.766 65.0371ZM109.529 48.2898L102.185 29.3461L94.7721 48.2898H109.529Z" fill="#12110D"/>
<mask id="mask0_92_479" style="mask-type:luminance" maskUnits="userSpaceOnUse" x="-8" y="0" width="84" height="82">
<path d="M68.3736 13.1107L75.7103 44.1821L66.9024 66.4879L23.9966 81.5613C23.9966 81.5613 24.4929 69.3502 14.4029 55.3909C4.31298 41.4315 -7.43747 38.0725 -7.43747 38.0725L20.1393 1.79168L43.8137 0.618923L68.3736 13.1107Z" fill="white"/>
</mask>
<g mask="url(#mask0_92_479)">
<path d="M9.08571 59.2343L74.9528 44.7297C74.9528 44.7297 75.533 34.5015 64.4729 19.1999C53.4127 3.89833 43.5186 1.24103 43.5186 1.24103L9.08571 59.2343Z" fill="#FFA663"/>
<path d="M0.110829 65.4833L66.2342 65.2679C66.2342 65.2679 68.1166 51.3062 51.5101 28.3313C34.9036 5.35637 21.056 2.76444 21.056 2.76444L0.110829 65.4833Z" fill="#E37BD3"/>
<path fill-rule="evenodd" clip-rule="evenodd" d="M37.0299 12.17L12.6987 53.1495C13.2704 53.8644 13.8393 54.6112 14.403 55.3911C14.9667 56.171 15.4974 56.9454 15.9969 57.7125L62.4512 47.4828C60.2566 42.1336 56.8332 35.6953 51.5102 28.331C46.2972 21.1189 41.3561 15.9154 37.0299 12.17Z" fill="#E35052"/>
</g>
</svg>
